<svg xmlns="http://www.w3.org/2000/svg" viewBox="0 0 241.8 80.87"><defs><style>.cls-1{fill:#fff;}</style></defs><g id="Слой_2" data-name="Слой 2"><g id="Слой_1-2" data-name="Слой 1"><path class="cls-1" d="M158.37,34.43a21.46,21.46,0,0,0-42.81-.14c0,.41,0,.83,0,1.25,0,.1,0,.2,0,.3v.26c-.15,8.69-.5,12.13-1.08,24-.6,12.11-1.1,16.12-1.51,20.78l6.34-.08c1.58,0,3.5,0,5.77.08l.16-7.7,1.27-18.64A21.23,21.23,0,0,0,137,57.29,21.45,21.45,0,0,0,158.37,34.43ZM137,51a15.13,15.13,0,0,1-10.11-3.85,13.61,13.61,0,0,1-1.15-1.13,15.11,15.11,0,0,1-4-10.22,1.48,1.48,0,0,1,0-.21c0-.45,0-.9.07-1.34A15.21,15.21,0,1,1,137,51Z"/><path class="cls-1" d="M137,24.57a11.25,11.25,0,0,0-11.18,9.93,8.77,8.77,0,0,0-.08,1.15,1.21,1.21,0,0,0,0,.19,11.18,11.18,0,0,0,1.56,5.71,11.48,11.48,0,0,0,1.15,1.61A11.26,11.26,0,1,0,137,24.57Zm9.71,10.55h-5.51a4.12,4.12,0,0,0-.72-1.75l3.89-3.9A9.66,9.66,0,0,1,146.67,35.12Zm-9-9a9.71,9.71,0,0,1,5.64,2.35l-3.89,3.88a4.36,4.36,0,0,0-1.75-.72Zm-1.43,0v5.51a4.25,4.25,0,0,0-1.75.72l-3.9-3.88A9.69,9.69,0,0,1,136.25,26.12Zm-6.66,3.35,3.89,3.9a4.25,4.25,0,0,0-.72,1.75h-5.51A9.73,9.73,0,0,1,129.59,29.47Zm-1,11.28a9.68,9.68,0,0,1-1.31-4.2h5.51a4.21,4.21,0,0,0,.72,1.74l-3.89,3.9A9.68,9.68,0,0,1,128.56,40.75Zm7.69,4.8a9.67,9.67,0,0,1-5.65-2.34l3.9-3.9a4.4,4.4,0,0,0,1.75.73ZM135,37.81a2.8,2.8,0,0,1,0-4,2.82,2.82,0,0,1,2-.81,2.78,2.78,0,0,1,1.95.79h0l0,0a2.78,2.78,0,0,1,.81,2,2.75,2.75,0,0,1-.81,1.95l0,0,0,0a2.81,2.81,0,0,1-3.93,0Zm2.7,7.74V40a4.53,4.53,0,0,0,1.75-.73l3.89,3.9A9.7,9.7,0,0,1,137.68,45.55Zm6.65-3.36-3.89-3.9a4.08,4.08,0,0,0,.72-1.74h5.51A9.61,9.61,0,0,1,144.33,42.19Z"/><path class="cls-1" d="M15.31,56.54l.91-12.1.9-18L17.7,8.7H14.81l-2.69,0-2.57,0L0,9.07Q.33,3.1.37,0q11.93.09,25,.08L40.2,0l7.95,0q-.4,5.9-.41,9.07-7.5-.37-14.37-.37H30.18l-.49,7.56L28.5,45.37l-.09,4.88c0,2,0,4.11,0,6.29l-6.3-.09Z"/><path class="cls-1" d="M84.14,56.54c-2.44-.06-4.3-.09-5.6-.09q-2.45,0-5.55.09l.07-6.88c-.77,1.16-1.45,2.09-2,2.8a12.56,12.56,0,0,1-2.27,2.07,12.31,12.31,0,0,1-3.07,1.61,23.58,23.58,0,0,1-3.79,1,25.14,25.14,0,0,1-4.53.39,22.28,22.28,0,0,1-8.08-1.34,12,12,0,0,1-5.44-4.08q-2-2.74-2-7.83v-.87l.67-10.69.63-14.08c0-1.13,0-2.54,0-4.23,2.62.06,4.68.09,6.16.09s3.48,0,5.71-.09L53.68,33.3c-.09,1.47-.15,2.7-.19,3.71s-.06,1.73-.06,2.17a11.91,11.91,0,0,0,.89,5,6,6,0,0,0,3.1,3,11,11,0,0,0,4.74,1,11.52,11.52,0,0,0,4.55-.91A9.7,9.7,0,0,0,70,44.94a12.18,12.18,0,0,0,2.34-4,21.39,21.39,0,0,0,1.07-5.05q.3-2.28.54-7.83.35-6.7.47-13.63,4.11.09,6.27.09c1.63,0,3.47,0,5.51-.09q-.49,5.93-1,14.81t-.74,14.66C84.33,47.74,84.22,52,84.14,56.54Z"/><path class="cls-1" d="M94.44,56.54q.61-7,1.51-25.16T97,0c2.88.06,4.92.08,6.14.08,1.63,0,3.62,0,6-.08l-1,15.12-1.44,33.71-.17,7.71q-3.4-.09-5.76-.09Z"/><path class="cls-1" d="M168.82,23.65c.39-2,.63-3.38.72-4.18s.27-2,.52-3.65A97.67,97.67,0,0,1,180,14a67.11,67.11,0,0,1,8.33-.54,31,31,0,0,1,8.37,1.06,12.48,12.48,0,0,1,6,3.37c1.44,1.55,2.15,3.77,2.15,6.67,0,1.57-.22,5.59-.65,12s-.7,13.11-.79,20c-2.1-.06-4-.09-5.8-.09s-3.66,0-5.93.09q.56-5,.88-11.6l.55-10.31a26,26,0,0,1-2.41,1.45,15,15,0,0,1-1.86.76c-.69.24-1.91.6-3.65,1.08s-3.14.9-4.19,1.26a19.24,19.24,0,0,0-2.84,1.22A9.57,9.57,0,0,0,176,41.94a5.59,5.59,0,0,0-1.27,1.78,5.14,5.14,0,0,0-.39,2,4.67,4.67,0,0,0,1,3,5.34,5.34,0,0,0,2.55,1.76,11.74,11.74,0,0,0,3.61.5,19.76,19.76,0,0,0,2.79-.21,23.51,23.51,0,0,0,4-1,71.91,71.91,0,0,0-2,7c-2,.33-3.52.53-4.68.62s-2.24.12-3.23.12a22.35,22.35,0,0,1-8.58-1.41,9.52,9.52,0,0,1-4.95-4.47,13.27,13.27,0,0,1-1.59-6.17,10.24,10.24,0,0,1,.62-3.52,10.47,10.47,0,0,1,1.82-3.19,16,16,0,0,1,3.11-2.8,23.57,23.57,0,0,1,5.51-2.61,82.48,82.48,0,0,1,9.54-2.54c1-.22,2.14-.49,3.27-.81a20.73,20.73,0,0,0,2.71-.93,6.29,6.29,0,0,0,1.77-1.18,5,5,0,0,0,1.09-1.52,3.95,3.95,0,0,0-.7-4.34,5.61,5.61,0,0,0-2.74-1.56,14.76,14.76,0,0,0-3.71-.43A45.79,45.79,0,0,0,168.82,23.65Z"/><path class="cls-1" d="M213.68,56.54l1.2-19.68.33-11.43q.07-3.53.08-7.08c0-.42,0-1.73-.08-3.94q3.85.09,5.67.09c1.41,0,3.28,0,5.6-.09l-.21,5.84A25.39,25.39,0,0,1,229,16.92a12,12,0,0,1,5.59-3.09,14.63,14.63,0,0,1,6.88,0q0,3.85.37,9.78a17.17,17.17,0,0,0-4.43-.66,11.65,11.65,0,0,0-4.25.72,9.59,9.59,0,0,0-3.31,2.2,11.77,11.77,0,0,0-2.42,3.62A16,16,0,0,0,226.23,34q-.33,2.15-.55,7.37t-.22,10.27q0,2,.12,4.89-3.15-.09-5.76-.09C218.1,56.45,216.06,56.48,213.68,56.54Z"/></g></g></svg>