<svg width="376" height="138" viewBox="0 0 376 138" fill="none" xmlns="http://www.w3.org/2000/svg">
<g filter="url(#filter0_d_53_94)">
<path d="M243.17 56.5695C242.625 48.5944 239.079 41.122 233.246 35.6562C227.413 30.1905 219.726 27.1373 211.732 27.1111C203.738 27.085 196.032 30.0879 190.163 35.5153C184.294 40.9428 180.7 48.3919 180.102 56.3632C180.102 56.9672 180.102 57.586 180.102 58.2047C180.102 58.3521 180.102 58.4994 180.102 58.6467V59.0297C179.881 71.8319 179.366 76.8997 178.511 94.3867C177.627 112.227 176.891 118.135 176.286 125L185.627 124.882C187.954 124.882 190.783 124.882 194.127 125L194.363 113.656L196.234 86.1957C200.947 88.8612 206.273 90.2572 211.688 90.247C216.008 90.2402 220.282 89.3475 224.244 87.624C228.206 85.9005 231.772 83.3828 234.723 80.2265C237.673 77.0703 239.945 73.3425 241.398 69.2735C242.851 65.2045 243.454 60.8808 243.17 56.5695ZM211.688 80.9805C206.194 80.9901 200.89 78.9703 196.794 75.3087C196.196 74.7877 195.631 74.2319 195.099 73.644C191.317 69.5412 189.214 64.1677 189.207 58.5878C189.199 58.4848 189.199 58.3814 189.207 58.2784C189.207 57.6154 189.207 56.9525 189.31 56.3043C189.748 51.9952 191.426 47.9055 194.141 44.5302C196.855 41.155 200.49 38.6388 204.605 37.2862C208.72 35.9337 213.138 35.8027 217.326 36.9091C221.514 38.0156 225.291 40.312 228.201 43.5205C231.11 46.729 233.028 50.7121 233.721 54.9877C234.414 59.2633 233.853 63.6481 232.106 67.6115C230.359 71.5749 227.5 74.947 223.877 77.3197C220.253 79.6924 216.019 80.964 211.688 80.9805Z" fill="#203397"/>
<path d="M211.69 42.0441C207.629 42.0414 203.708 43.5295 200.672 46.2262C197.636 48.9229 195.696 52.6403 195.219 56.6731C195.143 57.2346 195.103 57.8006 195.101 58.3673C195.094 58.4605 195.094 58.554 195.101 58.6472C195.098 61.6068 195.891 64.5126 197.399 67.0592C197.895 67.8971 198.462 68.6907 199.094 69.4311C200.904 71.5425 203.217 73.1648 205.819 74.1486C208.42 75.1324 211.228 75.4462 213.982 75.0611C216.737 74.6759 219.351 73.6043 221.583 71.9447C223.815 70.2852 225.594 68.091 226.757 65.5639C227.919 63.0368 228.427 60.2581 228.234 57.4832C228.042 54.7084 227.154 52.0266 225.654 49.6844C224.153 47.3423 222.088 45.415 219.648 44.0799C217.208 42.7448 214.471 42.0448 211.69 42.0441ZM225.994 57.5865H217.877C217.728 56.6565 217.365 55.7738 216.816 55.0084L222.547 49.2629C224.546 51.5986 225.735 54.5188 225.935 57.5865H225.994ZM212.736 44.3276C215.806 44.5575 218.719 45.7716 221.044 47.7896L215.314 53.5057C214.542 52.9677 213.662 52.6056 212.736 52.445V44.3276ZM210.629 44.3276V52.445C209.701 52.6003 208.819 52.9629 208.051 53.5057L202.305 47.7896C204.621 45.7756 207.524 44.5616 210.585 44.3276H210.629ZM200.817 49.2629L206.548 55.0084C206.005 55.7771 205.643 56.6583 205.487 57.5865H197.37C197.582 54.5187 198.775 51.6006 200.773 49.2629H200.817ZM199.344 65.8807C198.234 63.9936 197.574 61.8765 197.414 59.6932H205.532C205.687 60.6168 206.05 61.4932 206.592 62.2566L200.861 68.0021C200.261 67.3465 199.724 66.6363 199.256 65.8807H199.344ZM210.673 72.9521C207.599 72.7336 204.678 71.524 202.349 69.5048L208.095 63.7592C208.866 64.3008 209.746 64.6678 210.673 64.8347V72.9521ZM208.743 61.5494C208.351 61.1654 208.04 60.7069 207.827 60.201C207.615 59.6951 207.505 59.1518 207.505 58.603C207.505 58.0542 207.615 57.511 207.827 57.005C208.04 56.4991 208.351 56.0407 208.743 55.6566C209.528 54.8839 210.588 54.4547 211.69 54.4633C212.763 54.4599 213.794 54.8778 214.562 55.6271C214.948 56.0139 215.252 56.4738 215.456 56.9798C215.661 57.4858 215.763 58.0277 215.756 58.5735C215.756 59.1074 215.65 59.636 215.446 60.129C215.241 60.622 214.941 61.0697 214.562 61.4463C213.789 62.203 212.75 62.6268 211.667 62.6268C210.585 62.6268 209.546 62.203 208.773 61.4463L208.743 61.5494ZM212.721 72.9521V64.7758C213.646 64.6032 214.525 64.2366 215.299 63.7003L221.03 69.4458C218.703 71.4866 215.777 72.717 212.691 72.9521H212.721ZM222.518 68.0021L216.787 62.2566C217.335 61.4965 217.699 60.6187 217.848 59.6932H225.965C225.741 62.7674 224.521 65.6848 222.488 68.0021H222.518Z" fill="#203397"/>
<path d="M32.4143 89.1425L33.7549 71.3166L35.0808 44.7989L35.9353 18.6642H31.6777H27.7148H23.9286L9.8595 19.2093C10.1836 13.3459 10.3653 8.89192 10.4046 5.84729C22.1215 5.93568 34.3982 5.97497 47.2348 5.96515L69.0825 5.84729H80.7945C80.4016 11.6419 80.2003 16.0959 80.1904 19.2093C72.8244 18.8459 65.7677 18.6642 59.0204 18.6642H54.3209L53.599 29.8016L51.8459 72.6867L51.7133 79.876C51.7133 82.8224 51.7133 85.9309 51.7133 89.1425L42.4321 89.0099L32.4143 89.1425Z" fill="#203397"/>
<path d="M133.816 89.1429C130.221 89.0545 127.481 89.0103 125.566 89.0103C123.16 89.0103 120.434 89.0545 117.39 89.1429L117.493 79.0072C116.358 80.7161 115.357 82.0862 114.546 83.1322C113.561 84.2817 112.437 85.3059 111.202 86.1817C109.814 87.1817 108.291 87.9803 106.679 88.5536C104.862 89.1988 102.995 89.6916 101.096 90.0268C98.8933 90.4195 96.6596 90.6118 94.4223 90.6014C90.3666 90.6846 86.3305 90.0152 82.5188 88.6273C79.3237 87.4384 76.5405 85.351 74.5045 82.6166C72.5402 79.9255 71.5581 76.0804 71.5581 71.0814V69.7997L72.5452 54.0511L73.4733 33.3083C73.4733 31.6435 73.4733 29.5663 73.4733 27.0766C77.3331 27.165 80.3679 27.2092 82.5482 27.2092C84.7286 27.2092 87.675 27.2092 90.9602 27.0766L88.942 54.9055C88.8094 57.0711 88.721 58.8832 88.662 60.3711C88.6031 61.8591 88.5737 62.9198 88.5737 63.568C88.476 66.089 88.9233 68.6015 89.8848 70.934C90.8066 72.9225 92.4342 74.4976 94.4517 75.3537C96.641 76.3575 99.0265 76.8608 101.435 76.8269C103.737 76.8393 106.018 76.3831 108.138 75.4862C109.976 74.6941 111.627 73.5247 112.985 72.0537C114.5 70.3281 115.671 68.3276 116.432 66.1608C117.256 63.7537 117.785 61.2556 118.008 58.7211C118.303 56.4818 118.568 52.6368 118.804 47.1859C119.148 40.6056 119.378 33.9123 119.496 27.1061C123.533 27.1945 126.612 27.2387 128.733 27.2387C131.135 27.2387 133.845 27.2387 136.851 27.1061C136.369 32.9302 135.878 40.2029 135.377 48.9243C134.877 57.6457 134.513 64.8448 134.287 70.5215C134.096 76.1787 133.934 82.4545 133.816 89.1429Z" fill="#203397"/>
<path d="M148.989 89.1425C149.588 82.2675 150.33 69.9122 151.214 52.0765C152.097 34.2409 152.613 18.8312 152.76 5.84729C157.003 5.93568 160.009 5.96515 161.806 5.96515C164.207 5.96515 167.139 5.96515 170.645 5.84729L169.172 28.1222L167.051 77.784L166.8 89.1425C163.461 89.0541 160.632 89.0099 158.314 89.0099L148.989 89.1425Z" fill="#203397"/>
<path d="M258.567 40.6883C259.142 37.7419 259.496 35.7088 259.628 34.5303C259.761 33.3517 260.026 31.5839 260.394 29.1531C265.226 28.0072 270.114 27.1123 275.038 26.4718C279.108 25.9523 283.207 25.6866 287.31 25.6763C291.472 25.6325 295.621 26.1579 299.64 27.2379C302.994 28.0317 306.057 29.752 308.48 32.2026C310.601 34.4861 311.647 37.7566 311.647 42.0289C311.647 44.3419 311.323 50.2642 310.689 59.7074C310.056 69.1507 309.658 79.0212 309.526 89.1716C306.432 89.0832 303.633 89.039 300.981 89.039C298.329 89.039 295.589 89.039 292.245 89.1716C292.795 84.2609 293.227 78.5645 293.541 72.0824L294.352 56.8936C293.208 57.6692 292.022 58.3823 290.801 59.0297C289.914 59.4638 288.998 59.8378 288.061 60.1494C287.044 60.503 285.247 61.0333 282.684 61.7404C280.12 62.4476 278.058 63.0663 276.511 63.5967C275.07 64.0826 273.671 64.6837 272.327 65.394C271.168 65.9898 270.097 66.7434 269.145 67.6333C268.355 68.3757 267.719 69.2669 267.274 70.2556C266.888 71.1896 266.692 72.1914 266.699 73.202C266.662 74.8017 267.183 76.3646 268.173 77.6216C269.141 78.8382 270.448 79.7405 271.929 80.2145C273.653 80.7354 275.447 80.9839 277.248 80.9511C278.623 80.9452 279.997 80.8418 281.358 80.6417C283.362 80.3242 285.333 79.8312 287.251 79.1685C286.095 82.554 285.112 85.9959 284.304 89.481C281.358 89.9671 279.119 90.2618 277.41 90.3944C275.701 90.5269 274.11 90.5711 272.651 90.5711C268.343 90.7129 264.048 90.0071 260.011 88.4939C256.866 87.25 254.276 84.9113 252.719 81.9087C251.211 79.114 250.407 75.9941 250.376 72.819C250.374 71.0502 250.684 69.2949 251.29 67.6333C251.9 65.921 252.807 64.33 253.971 62.9338C255.311 61.3641 256.851 59.9772 258.553 58.8088C261.081 57.181 263.809 55.8885 266.67 54.9637C271.276 53.4369 275.969 52.1873 280.724 51.2217C282.198 50.8976 283.877 50.4999 285.542 50.0284C286.903 49.6644 288.237 49.2066 289.534 48.6584C290.496 48.2311 291.378 47.6433 292.142 46.92C292.813 46.2812 293.358 45.5215 293.748 44.6807C294.228 43.6327 294.387 42.4655 294.204 41.3271C294.02 40.1888 293.502 39.1306 292.716 38.287C291.618 37.1508 290.217 36.3532 288.68 35.9888C286.892 35.547 285.055 35.3342 283.214 35.3553C274.736 35.5679 266.375 37.3772 258.567 40.6883Z" fill="#203397"/>
<path d="M324.655 89.1429L326.423 60.1501L326.909 43.3113C326.978 39.8444 327.017 36.3676 327.027 32.881C327.027 32.2622 327.027 30.3323 326.909 27.0765C330.69 27.1649 333.475 27.2091 335.262 27.2091C337.339 27.2091 340.094 27.2091 343.512 27.0765L343.203 35.6801C344.402 33.9339 345.747 32.2927 347.225 30.7743C349.508 28.5408 352.354 26.9676 355.46 26.2221C358.79 25.4164 362.265 25.4164 365.596 26.2221C365.596 30.0033 365.777 34.806 366.141 40.6301C364.017 40.0224 361.823 39.6955 359.614 39.6577C357.479 39.6188 355.356 39.9785 353.353 40.7185C351.519 41.4464 349.858 42.5505 348.477 43.9595C346.967 45.5 345.758 47.3086 344.912 49.2925C344.001 51.409 343.405 53.6475 343.144 55.9367C342.82 58.0483 342.55 61.6675 342.334 66.7943C342.117 71.921 342.009 76.9643 342.009 81.9241C342.009 83.8884 342.068 86.2897 342.186 89.1281C339.092 89.0397 336.264 88.9955 333.701 88.9955C331.167 89.0103 328.161 89.0545 324.655 89.1429Z" fill="#203397"/>
</g>
<defs>
<filter id="filter0_d_53_94" x="0.859497" y="0.84729" width="374.281" height="137.153" filterUnits="userSpaceOnUse" color-interpolation-filters="sRGB">
<feFlood flood-opacity="0" result="BackgroundImageFix"/>
<feColorMatrix in="SourceAlpha" type="matrix" values="0 0 0 0 0 0 0 0 0 0 0 0 0 0 0 0 0 0 127 0" result="hardAlpha"/>
<feMorphology radius="1" operator="erode" in="SourceAlpha" result="effect1_dropShadow_53_94"/>
<feOffset dy="4"/>
<feGaussianBlur stdDeviation="5"/>
<feComposite in2="hardAlpha" operator="out"/>
<feColorMatrix type="matrix" values="0 0 0 0 0 0 0 0 0 0 0 0 0 0 0 0 0 0 0.25 0"/>
<feBlend mode="normal" in2="BackgroundImageFix" result="effect1_dropShadow_53_94"/>
<feBlend mode="normal" in="SourceGraphic" in2="effect1_dropShadow_53_94" result="shape"/>
</filter>
</defs>
</svg>
