<svg width="164" height="55" viewBox="0 0 164 55" fill="none" xmlns="http://www.w3.org/2000/svg">
<path d="M107.395 23.348C107.144 19.677 105.512 16.2373 102.827 13.7214C100.142 11.2054 96.6035 9.80001 92.9239 9.78798C89.2444 9.77595 85.6968 11.1582 82.9954 13.6565C80.294 16.1549 78.6393 19.5838 78.3643 23.253C78.3643 23.5311 78.3643 23.8159 78.3643 24.1007C78.3643 24.1685 78.3643 24.2363 78.3643 24.3041V24.4805C78.2626 30.3734 78.0252 32.7062 77.6319 40.7557C77.225 48.9679 76.8859 51.6872 76.6079 54.8473L80.9073 54.793C81.9787 54.793 83.2807 54.793 84.8201 54.8473L84.9286 49.6257L85.7898 36.9852C87.9596 38.2122 90.4108 38.8548 92.9035 38.8501C94.8923 38.847 96.8593 38.4361 98.6831 37.6427C100.507 36.8494 102.149 35.6905 103.507 34.2376C104.865 32.7847 105.911 31.0688 106.579 29.1958C107.248 27.3228 107.526 25.3325 107.395 23.348ZM92.9035 34.5846C90.3745 34.5891 87.933 33.6593 86.0475 31.9738C85.7727 31.734 85.5123 31.4782 85.2677 31.2075C83.5268 29.319 82.5587 26.8455 82.5551 24.277C82.5518 24.2296 82.5518 24.182 82.5551 24.1346C82.5551 23.8294 82.5551 23.5243 82.6026 23.2259C82.8045 21.2424 83.5769 19.3599 84.8265 17.8062C86.076 16.2525 87.749 15.0943 89.6431 14.4717C91.5372 13.8491 93.5711 13.7888 95.4988 14.2981C97.4264 14.8074 99.1651 15.8645 100.505 17.3414C101.844 18.8183 102.726 20.6518 103.046 22.6199C103.365 24.588 103.106 26.6064 102.302 28.4308C101.498 30.2552 100.182 31.8074 98.5141 32.8995C96.8461 33.9917 94.8972 34.577 92.9035 34.5846Z" fill="#5055D6"/>
<path d="M92.9044 16.6618C91.0352 16.6605 89.2306 17.3455 87.833 18.5869C86.4354 19.8282 85.5422 21.5394 85.3229 23.3957C85.2877 23.6542 85.2696 23.9147 85.2686 24.1755C85.2653 24.2184 85.2653 24.2615 85.2686 24.3044C85.267 25.6667 85.6324 27.0043 86.3265 28.1765C86.5546 28.5622 86.8155 28.9275 87.1064 29.2683C87.9399 30.2402 89.0044 30.987 90.202 31.4398C91.3996 31.8927 92.6918 32.0371 93.9599 31.8599C95.2279 31.6826 96.431 31.1893 97.4585 30.4254C98.486 29.6615 99.3049 28.6514 99.8399 27.4882C100.375 26.325 100.609 25.0459 100.52 23.7686C100.431 22.4913 100.023 21.2568 99.3323 20.1787C98.6417 19.1006 97.691 18.2135 96.5678 17.5989C95.4445 16.9843 94.1848 16.6621 92.9044 16.6618V16.6618ZM99.4891 23.8161H95.7526C95.6841 23.388 95.517 22.9817 95.2643 22.6294L97.9023 19.9847C98.8224 21.0598 99.3696 22.404 99.462 23.8161H99.4891ZM93.3859 17.7129C94.7991 17.8187 96.1404 18.3776 97.2106 19.3065L94.5726 21.9377C94.2176 21.69 93.8125 21.5233 93.3859 21.4494V17.7129ZM92.4162 17.7129V21.4494C91.9889 21.5209 91.5833 21.6878 91.2294 21.9377L88.5847 19.3065C89.6508 18.3794 90.9872 17.8206 92.3958 17.7129H92.4162ZM87.8998 19.9847L90.5377 22.6294C90.2879 22.9832 90.121 23.3889 90.0495 23.8161H86.313C86.4106 22.404 86.9598 21.0607 87.8795 19.9847H87.8998ZM87.2217 27.634C86.7109 26.7654 86.4069 25.7908 86.3333 24.7859H90.0698C90.1414 25.211 90.3083 25.6144 90.5581 25.9658L87.9201 28.6105C87.6439 28.3088 87.3964 27.9818 87.181 27.634H87.2217ZM92.4365 30.8891C91.0213 30.7885 89.6769 30.2317 88.6051 29.3022L91.2498 26.6575C91.6047 26.9068 92.0097 27.0757 92.4365 27.1525V30.8891ZM91.5482 25.6403C91.3677 25.4635 91.2244 25.2525 91.1265 25.0196C91.0287 24.7867 90.9783 24.5366 90.9783 24.284C90.9783 24.0314 91.0287 23.7813 91.1265 23.5485C91.2244 23.3156 91.3677 23.1046 91.5482 22.9278C91.9096 22.5721 92.3974 22.3745 92.9044 22.3785C93.3984 22.3769 93.8732 22.5693 94.2268 22.9142V22.9142C94.4041 23.0923 94.5441 23.304 94.6384 23.5369C94.7327 23.7698 94.7795 24.0192 94.7761 24.2705C94.7762 24.5162 94.7277 24.7595 94.6334 24.9865C94.5391 25.2134 94.401 25.4195 94.2268 25.5928C93.8707 25.9412 93.3924 26.1362 92.8943 26.1362C92.3961 26.1362 91.9178 25.9412 91.5617 25.5928L91.5482 25.6403ZM93.3791 30.8891V27.1254C93.8052 27.046 94.2096 26.8773 94.5659 26.6304L97.2038 29.2751C96.1329 30.2145 94.786 30.7809 93.3656 30.8891H93.3791ZM97.8887 28.6105L95.2508 25.9658C95.5033 25.6159 95.6705 25.2119 95.739 24.7859H99.4755C99.3727 26.201 98.8107 27.5439 97.8751 28.6105H97.8887Z" fill="#5055D6"/>
<path d="M10.3822 38.3417L10.9993 30.1363L11.6096 17.9299L12.003 5.89976H10.0432H8.21898H6.47618L0 6.15067C0.149189 3.4517 0.232826 1.40148 0.250909 0C5.64433 0.040688 11.2954 0.0587716 17.2043 0.0542507L27.261 0H32.6521C32.4713 2.66733 32.3786 4.71755 32.3741 6.15067C28.9834 5.9834 25.7352 5.89976 22.6293 5.89976H20.4661L20.1338 11.0265L19.3268 30.7669L19.2658 34.0762C19.2658 35.4325 19.2658 36.8633 19.2658 38.3417L14.9935 38.2806L10.3822 38.3417Z" fill="#5055D6"/>
<path d="M57.0583 38.3419C55.4037 38.3012 54.1423 38.2809 53.2608 38.2809C52.1531 38.2809 50.8986 38.3012 49.4971 38.3419L49.5446 33.6763C49.0224 34.463 48.5613 35.0936 48.1883 35.5751C47.7346 36.1042 47.2176 36.5757 46.649 36.9788C46.01 37.4391 45.3091 37.8067 44.5671 38.0706C43.7307 38.3676 42.871 38.5944 41.997 38.7488C40.9831 38.9295 39.9549 39.018 38.925 39.0132C37.0581 39.0515 35.2003 38.7434 33.4457 38.1045C31.975 37.5573 30.6938 36.5964 29.7567 35.3378C28.8525 34.099 28.4004 32.3291 28.4004 30.028V29.438L28.8547 22.1887L29.282 12.6406C29.282 11.8743 29.282 10.9181 29.282 9.77209C31.0587 9.81278 32.4556 9.83313 33.4593 9.83313C34.4629 9.83313 35.8192 9.83313 37.3314 9.77209L36.4024 22.582C36.3413 23.5789 36.3006 24.413 36.2735 25.0979C36.2464 25.7828 36.2328 26.2711 36.2328 26.5695C36.1879 27.7299 36.3938 28.8865 36.8364 29.9601C37.2607 30.8755 38.0099 31.6005 38.9386 31.9945C39.9463 32.4566 41.0444 32.6883 42.1529 32.6727C43.2126 32.6784 44.2624 32.4684 45.2384 32.0556C46.0846 31.691 46.8447 31.1526 47.4695 30.4755C48.1672 29.6812 48.7059 28.7604 49.0563 27.763C49.4356 26.6549 49.6792 25.505 49.7819 24.3384C49.9176 23.3077 50.0396 21.5377 50.1481 19.0286C50.3064 15.9996 50.4126 12.9186 50.4669 9.78566C52.3249 9.82635 53.7422 9.84669 54.7188 9.84669C55.8241 9.84669 57.0719 9.84669 58.4553 9.78566C58.2337 12.4665 58.0077 15.8143 57.7771 19.8288C57.5466 23.8434 57.3793 27.1572 57.2753 29.7703C57.1872 32.3743 57.1126 35.2632 57.0583 38.3419Z" fill="#5055D6"/>
<path d="M64.043 38.3417C64.3187 35.177 64.6601 29.4898 65.0669 21.2798C65.4738 13.0699 65.7112 5.97662 65.779 0C67.732 0.040688 69.1154 0.0542507 69.9427 0.0542507C71.0481 0.0542507 72.3976 0.0542507 74.0115 0L73.3334 10.2534L72.3569 33.1133L72.2416 38.3417C70.7045 38.301 69.4025 38.2806 68.3355 38.2806L64.043 38.3417Z" fill="#5055D6"/>
<path d="M114.483 16.0377C114.747 14.6814 114.91 13.7456 114.971 13.2031C115.032 12.6606 115.154 11.8468 115.324 10.7279C117.548 10.2004 119.798 9.78848 122.064 9.49367C123.938 9.25451 125.824 9.1322 127.713 9.12748C129.629 9.1073 131.539 9.34915 133.389 9.8463C134.933 10.2117 136.343 11.0036 137.458 12.1316C138.434 13.1827 138.916 14.6882 138.916 16.6548C138.916 17.7194 138.767 20.4455 138.475 24.7924C138.184 29.1392 138 33.6827 137.939 38.3551C136.515 38.3144 135.227 38.294 134.006 38.294C132.786 38.294 131.524 38.294 129.985 38.3551C130.238 36.0946 130.437 33.4725 130.582 30.4887L130.955 23.4971C130.428 23.8542 129.882 24.1824 129.32 24.4804C128.912 24.6802 128.491 24.8524 128.059 24.9958C127.591 25.1586 126.764 25.4027 125.584 25.7282C124.404 26.0537 123.455 26.3385 122.742 26.5826C122.079 26.8063 121.435 27.083 120.817 27.41C120.283 27.6842 119.79 28.0311 119.352 28.4407C118.988 28.7825 118.695 29.1927 118.491 29.6478C118.313 30.0777 118.223 30.5389 118.226 31.0041C118.209 31.7404 118.449 32.4598 118.904 33.0385C119.35 33.5985 119.952 34.0138 120.633 34.232C121.427 34.4718 122.253 34.5862 123.082 34.5711C123.715 34.5684 124.347 34.5208 124.974 34.4287C125.896 34.2825 126.804 34.0556 127.686 33.7505C127.154 35.3089 126.701 36.8933 126.33 38.4975C124.974 38.7212 123.943 38.8569 123.156 38.9179C122.37 38.9789 121.637 38.9993 120.966 38.9993C118.982 39.0645 117.006 38.7397 115.147 38.0431C113.7 37.4705 112.507 36.394 111.791 35.0119C111.097 33.7254 110.727 32.2893 110.712 30.8278C110.712 30.0136 110.854 29.2056 111.133 28.4407C111.414 27.6526 111.831 26.9202 112.367 26.2775C112.984 25.555 113.693 24.9166 114.476 24.3787C115.64 23.6295 116.896 23.0345 118.213 22.6088C120.333 21.906 122.493 21.3308 124.682 20.8863C125.36 20.7371 126.133 20.554 126.899 20.337C127.526 20.1694 128.14 19.9587 128.737 19.7064C129.18 19.5097 129.586 19.2391 129.937 18.9062C130.247 18.6121 130.497 18.2624 130.677 17.8754C130.898 17.393 130.971 16.8557 130.887 16.3317C130.802 15.8077 130.564 15.3206 130.202 14.9323C129.696 14.4093 129.052 14.0422 128.344 13.8744C127.521 13.6711 126.676 13.5731 125.828 13.5828C121.926 13.6807 118.077 14.5135 114.483 16.0377V16.0377Z" fill="#5055D6"/>
<path d="M144.904 38.3419L145.718 24.9962L145.941 17.2451C145.973 15.6493 145.991 14.0489 145.996 12.4439C145.996 12.1591 145.996 11.2708 145.941 9.77209C147.682 9.81278 148.964 9.83312 149.786 9.83312C150.743 9.83312 152.011 9.83312 153.584 9.77209L153.442 13.7324C153.994 12.9286 154.613 12.1732 155.293 11.4742C156.344 10.4461 157.654 9.72197 159.084 9.37877C160.617 9.0079 162.216 9.0079 163.749 9.37877C163.749 11.1193 163.833 13.33 164 16.0109C163.023 15.7312 162.013 15.5807 160.996 15.5634C160.013 15.5454 159.036 15.711 158.114 16.0516C157.27 16.3867 156.505 16.8949 155.869 17.5435C155.174 18.2526 154.618 19.0851 154.228 19.9984C153.809 20.9726 153.535 22.003 153.414 23.0567C153.265 24.0287 153.141 25.6947 153.041 28.0546C152.942 30.4145 152.892 32.736 152.892 35.019C152.892 35.9232 152.919 37.0286 152.974 38.3351C151.55 38.2944 150.248 38.2741 149.068 38.2741C147.901 38.2809 146.518 38.3012 144.904 38.3419Z" fill="#5055D6"/>
</svg>
