<svg width="43" height="30" viewBox="0 0 43 30" fill="none" xmlns="http://www.w3.org/2000/svg">
<path d="M21.4903 0H21.7279C23.9221 0.00800783 35.0396 0.0880866 38.0372 0.894208C38.9434 1.14023 39.7692 1.61978 40.432 2.28492C41.0948 2.95007 41.5714 3.77752 41.8142 4.68458C42.0838 5.69891 42.2733 7.04155 42.4015 8.42691L42.4282 8.70451L42.4869 9.39852L42.5082 9.67613C42.6817 12.1158 42.7031 14.4007 42.7058 14.8999V15.1001C42.7031 15.6179 42.6791 18.0577 42.4869 20.5988L42.4655 20.8791L42.4415 21.1567C42.308 22.6835 42.1105 24.1997 41.8142 25.3154C41.5721 26.2228 41.0957 27.0507 40.4328 27.7159C39.7699 28.3812 38.9438 28.8605 38.0372 29.1058C34.9408 29.9386 23.172 29.9973 21.5411 30H21.162C20.3372 30 16.9259 29.984 13.3491 29.8612L12.8953 29.8452L12.663 29.8345L12.2066 29.8158L11.7502 29.7971C8.78726 29.6663 5.96583 29.4555 4.6659 29.1031C3.75965 28.8581 2.93371 28.3792 2.27082 27.7144C1.60793 27.0496 1.13136 26.2224 0.888869 25.3154C0.592579 24.2023 0.395053 22.6835 0.261589 21.1567L0.240235 20.8764L0.218881 20.5988C0.0871455 18.7901 0.0141468 16.9776 0 15.1642L0 14.8358C0.00533855 14.2619 0.0266928 12.2787 0.170834 10.0899L0.189519 9.81493L0.197526 9.67613L0.218881 9.39852L0.277605 8.70451L0.304298 8.42691C0.432423 7.04155 0.621941 5.69624 0.891538 4.68458C1.13362 3.77715 1.61001 2.94931 2.27292 2.28405C2.93584 1.61879 3.762 1.13949 4.66856 0.894208C5.9685 0.547202 8.78993 0.333659 11.7528 0.200196L12.2066 0.181511L12.6657 0.165496L12.8953 0.157488L13.3517 0.138803C15.8921 0.0570551 18.4335 0.0116724 20.9752 0.0026694H21.4903V0ZM17.0834 8.56838V21.429L28.1796 15.0013L17.0834 8.56838Z" fill="white"/>
</svg>
